<svg width="760" height="520" viewBox="0 0 760 520" fill="none" xmlns="http://www.w3.org/2000/svg">
  <defs>
    <linearGradient id="bgGrad" x1="0" y1="0" x2="1" y2="1">
      <stop offset="0%" stop-color="#eef4ff"/>
      <stop offset="100%" stop-color="#f8fbff"/>
    </linearGradient>
    <linearGradient id="cardGrad" x1="0" y1="0" x2="1" y2="1">
      <stop offset="0%" stop-color="#4f6dff"/>
      <stop offset="100%" stop-color="#0d6efd"/>
    </linearGradient>
  </defs>
  <rect width="760" height="520" rx="32" fill="url(#bgGrad)"/>
  <rect x="60" y="72" width="620" height="376" rx="36" fill="#fff" stroke="#dbe6ff" stroke-width="2"/>
  <rect x="88" y="110" width="260" height="30" rx="15" fill="#eff4ff"/>
  <rect x="88" y="156" width="210" height="18" rx="9" fill="#dbe6ff"/>
  <rect x="88" y="188" width="320" height="18" rx="9" fill="#dbe6ff"/>
  <rect x="88" y="230" width="380" height="18" rx="9" fill="#eef4ff"/>
  <rect x="88" y="270" width="280" height="18" rx="9" fill="#dbe6ff"/>

  <rect x="420" y="110" width="198" height="132" rx="24" fill="#f5f8ff"/>
  <rect x="444" y="136" width="148" height="18" rx="9" fill="#4f6dff"/>
  <rect x="444" y="168" width="112" height="10" rx="5" fill="#9abaff"/>
  <rect x="444" y="186" width="168" height="10" rx="5" fill="#dbe6ff"/>
  <rect x="444" y="214" width="178" height="10" rx="5" fill="#dbe6ff"/>

  <rect x="420" y="260" width="198" height="160" rx="24" fill="url(#cardGrad)" opacity="0.95"/>
  <rect x="452" y="290" width="124" height="16" rx="8" fill="#fff"/>
  <rect x="452" y="320" width="174" height="14" rx="7" fill="#cee0ff"/>
  <rect x="452" y="344" width="154" height="14" rx="7" fill="#dbe6ff"/>
  <rect x="452" y="370" width="134" height="14" rx="7" fill="#e9eeff"/>

  <g filter="url(#shadow)">
    <rect x="140" y="318" width="200" height="172" rx="28" fill="#f8fcff" stroke="#dbe6ff" stroke-width="2"/>
  </g>
  <path d="M170 348H316" stroke="#4f6dff" stroke-width="10" stroke-linecap="round"/>
  <path d="M170 384H292" stroke="#9abaff" stroke-width="10" stroke-linecap="round"/>
  <path d="M170 420H238" stroke="#dbe6ff" stroke-width="10" stroke-linecap="round"/>
  <circle cx="432" cy="384" r="38" fill="#fff" stroke="#dbe6ff" stroke-width="2"/>
  <path d="M422 393L440 375" stroke="#4f6dff" stroke-width="8" stroke-linecap="round"/>
  <path d="M440 375L458 393" stroke="#4f6dff" stroke-width="8" stroke-linecap="round"/>

  <rect x="108" y="120" width="140" height="78" rx="18" fill="#fff" stroke="#cfe0ff" stroke-width="2"/>
  <rect x="128" y="148" width="96" height="16" rx="8" fill="#4f6dff"/>
  <rect x="128" y="176" width="62" height="12" rx="6" fill="#9abaff"/>

  <rect x="520" y="390" width="96" height="80" rx="20" fill="#e7f0ff"/>
  <rect x="534" y="410" width="28" height="28" rx="10" fill="#4f6dff"/>
  <rect x="574" y="410" width="28" height="28" rx="10" fill="#2563eb"/>
  <rect x="534" y="450" width="68" height="14" rx="7" fill="#4f6dff"/>

  <path d="M178 326C190 318 206 318 218 326C226 332 234 346 246 346C258 346 266 330 278 326" stroke="#0d6efd" stroke-width="10" stroke-linecap="round"/>
  <path d="M210 340L210 368" stroke="#0d6efd" stroke-width="10" stroke-linecap="round"/>
  <path d="M258 332L258 380" stroke="#0d6efd" stroke-width="10" stroke-linecap="round"/>
</svg>
